# AST/ASF file generated using VICON BodyLanguage
# -----------------------------------------------
:version 1.10
:name VICON
:units
  mass 1.0
  length 0.45
  angle deg
:documentation
   .ast/.asf automatically generated from VICON data using
   VICON BodyBuilder and BodyLanguage model FoxedUp or BRILLIANT.MOD
:root
   order TX TY TZ RX RY RZ
   axis XYZ
   position 0 0 0  
   orientation 0 0 0 
:bonedata
  begin
     id 1 
     name lhipjoint
     direction 0.606768 -0.715223 0.346827 
     length 2.41543 
     axis 0 0 0  XYZ
  end
  begin
     id 2 
     name lfemur
     direction 0.34202 -0.939693 0  
     length 7.2778  
     axis 0 0 20  XYZ
    dof rx ry rz
    limits (-160.0 20.0)
           (-70.0 70.0)
           (-60.0 70.0)
  end
  begin
     id 3 
     name ltibia
     direction 0.34202 -0.939693 0   
     length 7.61811   
     axis 0 0 20   XYZ
    dof rx
    limits (-10.0 170.0)
  end
  begin
     id 4 
     name lfoot
     direction 0.0823924 -0.226371 0.97055   
     length 2.33618   
     axis -90 7.62852e-016 20   XYZ
    dof rx rz
    limits (-45.0 90.0)
           (-70.0 20.0)
  end
  begin
     id 5 
     name ltoes
     direction 1.53554e-011 -4.21934e-011 1   
     length 1.17015   
     axis -90 7.62852e-016 20   XYZ
    dof rx
    limits (-90.0 20.0)
  end
  begin
     id 6 
     name rhipjoint
     direction -0.6077 -0.714582 0.346516   
     length 2.4176  
     axis 0 0 0  XYZ 
  end
  begin
     id 7 
     name rfemur
     direction -0.34202 -0.939693 0   
     length 7.28127   
     axis 0 0 -20   XYZ
    dof rx ry rz
    limits (-160.0 20.0)
           (-70.0 70.0)
           (-70.0 60.0)
  end
  begin
     id 8 
     name rtibia
     direction -0.34202 -0.939693 0   
     length 7.77648   
     axis 0 0 -20   XYZ
    dof rx
    limits (-10.0 170.0)
 end
 begin
     id 9 
     name rfoot
     direction -0.0809463 -0.222398 0.97159   
     length 2.37533  
     axis -90 -7.62852e-016 -20   XYZ
    dof rx rz
    limits (-45.0 90.0)
           (-20.0 70.0)
  end
  begin
     id 10 
     name rtoes
     direction -1.53568e-011 -4.21714e-011 1   
     length 1.18972   
     axis -90 -7.62852e-016 -20   XYZ
    dof rx
    limits (-90.0 20.0)
  end
  begin
     id 11 
     name lowerback
     direction 0.010968 0.991932 -0.126297   
     length 2.21698   
     axis 0 0 0   XYZ
    dof rx ry rz
    limits (-20.0 45.0)
           (-30.0 30.0)
           (-30.0 30.0)
  end
  begin
     id 12 
     name upperback
     direction 0.0167007 0.997503 -0.0686276   
     length 2.22371   
     axis 0 0 0   XYZ
    dof rx ry rz
    limits (-20.0 45.0)
           (-30.0 30.0)
           (-30.0 30.0)
  end
  begin
     id 13 
     name thorax
     direction 0.0111721 0.999885 -0.0102878   
     length 2.25242   
     axis 0 0 0   XYZ
    dof rx ry rz
    limits (-20.0 45.0)
           (-30.0 30.0)
           (-30.0 30.0)
  end
  begin
     id 14 
     name lowerneck
     direction -0.0120265 0.990428 0.137508   
     length 1.57674   
     axis 0 0 0   XYZ
    dof rx ry rz
    limits (-20.0 45.0)
           (-30.0 30.0)
           (-30.0 30.0)
  end
  begin
     id 15 
     name upperneck
     direction 0.0175669 0.998907 0.0433089   
     length 1.5618   
     axis 0 0 0   XYZ
    dof rx ry rz
    limits (-20.0 45.0)
           (-30.0 30.0)
           (-30.0 30.0)
  end
  begin
     id 16
     name head
     direction 0.00754609 0.99997 0.00185367  
     length 1.60579  
     axis 0 0 0   XYZ
    dof rx ry rz
    limits (-20.0 45.0)
           (-30.0 30.0)
           (-30.0 30.0)
  end
  begin
     id 17 
     name lclavicle
     direction 0.885866 0.429166 -0.176231  
     length 3.44967  
     axis 0 0 0   XYZ
    dof ry rz
    limits (-20.0 10.0)
           (0.0 20.0)
  end
  begin
     id 18 
     name lhumerus
     direction 1 -4.48973e-011 -1.90255e-027   
     length 5.20607   
     axis 180 -30 -90   XYZ
    dof rx ry rz
    limits (-60.0 90.0)
           (-90.0 90.0)
           (-90.0 90.0)
  end
  begin
     id 19
     name lradius
     direction 1 -4.48956e-011 9.87925e-027   
     length 3.39961   
     axis 180 -30 -90   XYZ
    dof rx
    limits (-10.0 170.0)
  end
  begin
     id 20
     name lwrist
     direction 1 -4.48985e-011 1.73247e-026   
     length 1.6998   
     axis -9.60847e-015 90 90   XYZ
    dof ry
    limits (-180.0 0.0)
 end
  begin
     id 21 
     name lhand
     direction 1 -4.48798e-011 3.46119e-026   
     length 0.519693   
     axis -2.21073e-014 90 90   XYZ
    dof rx rz
    limits (-90.0 90.0)
           (-45.0 45.0)
  end
  begin
     id 22 
     name lfingers
     direction 1 -4.48938e-011 6.92797e-026   
     length 0.41899   
     axis -4.42155e-014 90 90   XYZ
    dof rx
    limits (0.0 90.0)
  end
  begin
     id 23
     name lthumb
     direction 0.707107 -6.34952e-011 0.707107   
     length 0.601588   
     axis -90 45 6.0103e-014   XYZ
    dof rx rz
    limits (-45.0 45.0)
           (-45.0 45.0)
  end
  begin
     id 24 
     name rclavicle
     direction -0.866736 0.456792 -0.200276   
     length 3.45032  
     axis 0 0 0   XYZ 
    dof ry rz
    limits (-10.0 20.0)
           (-20.0 0.0)
  end
  begin
     id 25 
     name rhumerus
     direction -1 -4.4897e-011 8.65094e-028  
     length 5.32214   
     axis 180 30 90   XYZ
    dof rx ry rz
    limits (-90.0 60.0)
           (-90.0 90.0)
           (-90.0 90.0)
  end
  begin
     id 26 
     name rradius
     direction -1 -4.48987e-011 1.08427e-026   
     length 3.51208   
     axis 180 30 90   XYZ
    dof rx
    limits (-10.0 170.0)
  end
  begin
     id 27 
     name rwrist
     direction -1 -4.48961e-011 1.73222e-026   
     length 1.75604   
     axis -9.60847e-015 -90 -90   XYZ
    dof ry
    limits (-180.0 0.0)
  end
  begin
     id 28
     name rhand
     direction -1 -4.48895e-011 3.46314e-026   
     length 0.586681   
     axis -2.21073e-014 -90 -90   XYZ
    dof rx rz
    limits (-90.0 90.0)
           (-45.0 45.0)
  end
  begin
     id 29
     name rfingers
     direction -1 -4.48968e-011 6.92916e-026   
     length 0.472997   
     axis -4.42155e-014 -90 -90   XYZ
    dof rx
    limits (0.0 90.0)
  end
  begin
     id 30
     name rthumb
     direction -0.707107 -6.34848e-011 0.707107   
     length 0.679133   
     axis -90 -45 -6.0103e-014   XYZ
    dof rx rz
    limits (-45.0 45.0)
           (-45.0 45.0)
  end
:hierarchy
  begin
    root lhipjoint rhipjoint lowerback
    lhipjoint lfemur
    lfemur ltibia
    ltibia lfoot
    lfoot ltoes
    rhipjoint rfemur
    rfemur rtibia
    rtibia rfoot
    rfoot rtoes
    lowerback upperback
    upperback thorax
    thorax lowerneck lclavicle rclavicle
    lowerneck upperneck
    upperneck head
    lclavicle lhumerus
    lhumerus lradius
    lradius lwrist
    lwrist lhand lthumb
    lhand lfingers
    rclavicle rhumerus
    rhumerus rradius
    rradius rwrist
    rwrist rhand rthumb
    rhand rfingers
  end

#!OML:ASF H:\Dans Jumps\Project 1\Capture day 1\Session 1\subject.ASF
:FULLY-SPECIFIED
:DEGREES
21
root 0.278508 17.5852 -14.3563 6.42296 0.701227 -1.14647
lowerback -1.82947 -0.715037 0.277832
upperback 2.44147 -1.0289 2.01862
thorax 3.56954 -0.53446 1.87219
lowerneck -13.2989 0.306496 -1.81301
upperneck 28.0046 0.770367 0.438472
head 11.2644 0.210146 0.575505
rclavicle -4.47266e-015 -2.10712e-014
rhumerus -25.1592 -18.8045 -76.8597
rradius 24.6501
rwrist 33.3992
rhand -19.1259 -27.2381
rfingers 7.12502
rthumb 7.18358 -57.0962
lclavicle -4.47266e-015 -2.10712e-014
lhumerus -24.2676 -5.35264 92.6978
lradius 25.5898
lwrist 8.33621
lhand -24.0141 -3.43961
lfingers 7.12502
lthumb 2.46371 26.5259
rfemur -13.4968 -3.56734 20.7026
rtibia 20.9243
rfoot -13.0281 -2.37263
rtoes 13.9512
lfemur -13.4917 6.26781 -18.3761
ltibia 18.3929
lfoot -10.0752 1.91205
ltoes 2.63178
22
root 0.287328 17.5846 -14.3515 6.42706 0.771221 -1.16932
lowerback -1.87395 -0.745073 0.270245
upperback 2.42357 -1.06909 2.01978
thorax 3.57762 -0.554643 1.87518
lowerneck -13.3028 0.303399 -1.80897
upperneck 28.0125 0.763989 0.441642
head 11.2683 0.207931 0.57516
rclavicle -7.85199e-015 1.23246e-014
rhumerus -25.0578 -18.7931 -76.9788
rradius 24.7609
rwrist 33.1818
rhand -19.0991 -27.2877
rfingers 7.12502
rthumb 7.20946 -57.1449
lclavicle -7.85199e-015 1.23246e-014
lhumerus -24.1135 -5.1445 92.5557
lradius 25.2579
lwrist 7.86549
lhand -23.9574 -3.38779
lfingers 7.12502
lthumb 2.51852 26.5771
rfemur -13.4956 -3.53717 20.707
rtibia 20.9584
rfoot -13.0577 -2.56235
rtoes 13.6236
lfemur -13.4964 6.30722 -18.3848
ltibia 18.406
lfoot -10.1273 1.82738
ltoes 2.69463
23
root 0.296689 17.5837 -14.3469 6.42213 0.821876 -1.20998
lowerback -1.90961 -0.767011 0.288761
upperback 2.40923 -1.09938 2.02212
thorax 3.5836 -0.569223 1.8653
lowerneck -13.3123 0.299533 -1.81044
upperneck 28.0251 0.757687 0.446288
head 11.2751 0.205316 0.576363
rclavicle 3.77691e-015 -5.56597e-015
rhumerus -24.9605 -18.7271 -77.1209
rradius 24.9001
rwrist 32.8959
rhand -19.0424 -27.3274
rfingers 7.12502
rthumb 7.26426 -57.1827
lclavicle 3.77691e-015 -5.56597e-015
lhumerus -23.9507 -4.93253 92.4034
lradius 24.9231
lwrist 7.39874
lhand -23.9264 -3.33964
lfingers 7.12502
lthumb 2.54845 26.6249
rfemur -13.4837 -3.50926 20.729
rtibia 20.9812
rfoot -13.0742 -2.73159
rtoes 13.2858
lfemur -13.4981 6.34108 -18.3753
ltibia 18.44
lfoot -10.1869 1.7738
ltoes 2.76889
24
root 0.306332 17.5825 -14.3426 6.40484 0.852574 -1.25465
lowerback -1.93084 -0.780321 0.316338
upperback 2.39853 -1.11827 2.02249
thorax 3.5846 -0.577859 1.84901
lowerneck -13.3245 0.294719 -1.81706
upperneck 28.0382 0.750969 0.452664
head 11.2826 0.20219 0.579044
rclavicle 3.08116e-015 6.36111e-015
rhumerus -24.8717 -18.6013 -77.284
rradius 25.072
rwrist 32.5522
rhand -18.9613 -27.3515
rfingers 7.12502
rthumb 7.34255 -57.2041
lclavicle 3.08116e-015 6.36111e-015
lhumerus -23.7776 -4.71417 92.242
lradius 24.5841
lwrist 6.93937
lhand -23.9001 -3.2607
lfingers 7.12502
lthumb 2.57385 26.7035
rfemur -13.4619 -3.48197 20.7533
rtibia 21.0037
rfoot -13.0838 -2.88053
rtoes 12.9651
lfemur -13.4874 6.37294 -18.361
ltibia 18.4827
lfoot -10.2502 1.74186
ltoes 2.84765
25
root 0.315993 17.581 -14.3385 6.37384 0.864141 -1.29136
lowerback -1.93682 -0.78533 0.338922
upperback 2.39318 -1.12558 2.01693
thorax 3.5821 -0.58079 1.83017
lowerneck -13.3459 0.288547 -1.82297
upperneck 28.0524 0.742748 0.457823
head 11.2924 0.198306 0.581006
rclavicle 6.26172e-015 1.03368e-014
rhumerus -24.7859 -18.4325 -77.4649
rradius 25.265
rwrist 32.1695
rhand -18.857 -27.3594
rfingers 7.12502
rthumb 7.44314 -57.2085
lclavicle 6.26172e-015 1.03368e-014
lhumerus -23.5897 -4.50788 92.0737
lradius 24.2391
lwrist 6.51241
lhand -23.9065 -3.20265
lfingers 7.12502
lthumb 2.56762 26.7616
rfemur -13.4331 -3.45428 20.7674
rtibia 21.0368
rfoot -13.0917 -3.01367
rtoes 12.65
lfemur -13.4576 6.40577 -18.3539
ltibia 18.5234
lfoot -10.3118 1.72382
ltoes 2.91558
26
root 0.325343 17.5793 -14.3344 6.3295 0.855088 -1.30962
lowerback -1.92864 -0.783008 0.340564
upperback 2.39386 -1.12202 2.0044
thorax 3.57774 -0.578784 1.8166
lowerneck -13.3741 0.281433 -1.83213
upperneck 28.0646 0.733552 0.465211
head 11.3028 0.193934 0.584228
rclavicle -6.95746e-016 -2.38542e-015
rhumerus -24.6966 -18.2295 -77.6597
rradius 25.4677
rwrist 31.7708
rhand -18.7447 -27.3489
rfingers 7.12502
rthumb 7.5516 -57.1941
lclavicle -6.95746e-016 -2.38542e-015
lhumerus -23.389 -4.30165 91.8972
lradius 23.8928
lwrist 6.11356
lhand -23.9226 -3.12814
lfingers 7.12502
lthumb 2.55211 26.8363
rfemur -13.4014 -3.41822 20.7596
rtibia 21.0901
rfoot -13.1047 -3.13423
rtoes 12.3716
lfemur -13.4043 6.44235 -18.3643
ltibia 18.553
lfoot -10.3679 1.71408
ltoes 2.9739
27
root 0.334175 17.5774 -14.3305 6.27537 0.826698 -1.30384
lowerback -1.91042 -0.774275 0.313707
upperback 2.39853 -1.10855 1.98403
thorax 3.57193 -0.572499 1.81155
lowerneck -13.3991 0.275206 -1.84082
upperneck 28.0696 0.725791 0.471367
head 11.3098 0.190178 0.587058
rclavicle -4.07509e-015 5.96354e-015
rhumerus -24.6049 -17.9927 -77.8665
rradius 25.6748
rwrist 31.3687
rhand -18.6329 -27.3393
rfingers 7.12502
rthumb 7.65946 -57.1806
lclavicle -4.07509e-015 5.96354e-015
lhumerus -23.1814 -4.08303 91.7105
lradius 23.5527
lwrist 5.7329
lhand -23.9699 -3.11618
lfingers 7.12502
lthumb 2.50641 26.8488
rfemur -13.3732 -3.36976 20.7245
rtibia 21.1686
rfoot -13.1263 -3.24613
rtoes 12.1286
lfemur -13.3304 6.48666 -18.3981
ltibia 18.5668
lfoot -10.416 1.70657
ltoes 3.01827
